<?xml version="1.0" standalone="no"?>
<!DOCTYPE svg PUBLIC "-//W3C//DTD SVG 20010904//EN"
 "http://www.w3.org/TR/2001/REC-SVG-20010904/DTD/svg10.dtd">
<svg version="1.0" xmlns="http://www.w3.org/2000/svg"
 width="1155.000000pt" height="1077.000000pt" viewBox="0 0 1155.000000 1077.000000"
 preserveAspectRatio="xMidYMid meet">

<g transform="translate(0.000000,1077.000000) scale(0.100000,-0.100000)"
fill="#000000" stroke="none">
<path d="M5698 10098 c-8 -13 -41 -85 -73 -160 -32 -75 -63 -134 -67 -132 -5
3 -7 2 -6 -3 3 -11 -21 -81 -44 -127 -19 -36 -19 -39 -2 -55 11 -11 14 -11 9
-2 -6 10 -4 13 7 9 8 -3 46 -9 84 -13 38 -4 103 -15 144 -25 41 -10 82 -20 90
-22 8 -1 21 -10 28 -18 10 -11 12 -12 6 -1 -5 11 -3 13 10 8 10 -4 21 -7 24
-7 4 0 0 -5 -8 -11 -12 -8 -9 -9 12 -5 30 7 61 -2 52 -15 -3 -5 1 -6 9 -4 14
6 100 -28 92 -36 -2 -3 4 -5 13 -5 9 -1 24 -3 32 -5 8 -2 14 1 13 6 -1 6 -64
152 -141 325 l-139 315 -65 3 c-59 3 -67 1 -80 -20z"/>
<path d="M5340 9389 c-130 -7 -223 -20 -325 -45 -79 -19 -103 -29 -209 -81
-140 -68 -240 -154 -287 -246 -12 -22 -24 -35 -31 -31 -6 4 -8 3 -5 -4 4 -5 0
-39 -9 -74 -23 -89 -14 -185 25 -277 17 -39 26 -69 21 -66 -6 4 -7 -1 -3 -11
5 -13 3 -15 -7 -9 -9 5 -11 4 -6 -4 6 -9 11 -9 21 -1 17 14 36 -9 29 -37 -5
-17 -1 -22 18 -25 12 -2 22 -9 21 -16 -2 -6 2 -11 8 -9 6 1 14 -4 17 -12 3 -9
0 -11 -8 -6 -9 5 -11 4 -6 -4 4 -6 11 -9 15 -7 9 6 136 -132 136 -147 0 -7 7
-12 15 -12 9 0 14 -8 12 -20 -2 -15 -1 -17 7 -6 7 11 11 10 22 -8 8 -11 19
-21 25 -21 6 0 19 -9 29 -20 21 -24 14 -27 -9 -4 -12 12 -16 12 -16 2 0 -10
-3 -9 -11 2 -8 12 -10 12 -7 1 4 -14 23 -21 60 -24 9 -1 15 -4 12 -8 -2 -4 4
-13 13 -20 12 -10 15 -10 9 -1 -4 7 13 -2 39 -19 40 -27 44 -33 33 -47 -12
-15 -11 -16 4 -3 15 11 24 10 60 -7 24 -11 64 -24 90 -27 31 -5 46 -11 41 -19
-3 -6 0 -6 8 2 7 6 17 12 22 12 4 0 5 -6 1 -12 -4 -7 1 -6 12 3 10 9 33 21 51
28 39 16 114 94 141 147 41 80 54 150 50 258 -3 89 -7 108 -33 156 -40 74
-101 114 -195 130 -118 20 -273 -10 -328 -63 -31 -30 -33 -35 -30 -94 2 -34 5
-59 7 -57 3 2 17 -8 33 -23 21 -20 40 -27 81 -31 46 -4 57 -1 84 22 64 54 64
138 2 191 l-31 25 29 0 c15 -1 48 -5 73 -11 25 -5 54 -11 65 -13 30 -5 75 -28
75 -38 0 -5 -6 -6 -12 -2 -10 5 -10 3 0 -7 11 -12 14 -12 21 0 6 9 11 10 15 2
4 -6 4 -11 -1 -11 -4 0 2 -7 14 -15 25 -17 47 -77 40 -106 -3 -12 -1 -17 6
-12 7 4 8 -18 3 -74 -8 -96 -24 -152 -38 -131 -7 9 -8 6 -5 -10 7 -30 -2 -54
-16 -45 -5 3 -7 1 -4 -4 13 -21 -39 -97 -86 -127 -19 -13 -46 -18 -92 -18
-179 0 -421 215 -499 445 -77 229 -11 433 193 597 24 19 48 40 55 45 61 55
140 100 157 90 5 -4 9 2 9 11 0 10 3 15 6 11 4 -3 19 0 35 8 25 14 173 51 209
54 8 0 51 4 95 9 90 9 227 4 220 -9 -3 -4 11 -5 31 -2 29 5 35 3 29 -7 -6 -9
-4 -11 4 -6 7 5 32 5 56 1 33 -4 43 -10 38 -21 -3 -9 1 -14 12 -14 10 0 13 5
9 12 -5 8 0 9 17 5 13 -4 28 -7 32 -7 5 0 5 -5 1 -12 -4 -6 -3 -8 3 -5 6 4 31
-1 57 -9 41 -14 45 -18 34 -33 -11 -14 -11 -14 3 -3 9 7 25 9 34 5 12 -4 16
-3 11 5 -6 11 -20 17 -108 56 -63 27 -224 65 -303 72 -44 3 -89 7 -100 8 -11
1 -76 -1 -145 -5z m-765 -889 c3 -5 1 -10 -4 -10 -6 0 -11 5 -11 10 0 6 2 10
4 10 3 0 8 -4 11 -10z"/>
<path d="M5390 9346 c0 -2 7 -6 15 -10 8 -3 15 -1 15 4 0 6 -7 10 -15 10 -8 0
-15 -2 -15 -4z"/>
<path d="M5435 9044 c-11 -3 -57 -12 -103 -21 -46 -9 -85 -20 -88 -25 -3 -4
52 -8 122 -8 177 0 307 -24 266 -49 -7 -4 13 -7 45 -7 54 1 133 -19 133 -33 0
-4 9 -7 20 -8 10 -1 32 -10 47 -21 15 -10 51 -34 79 -53 33 -21 48 -37 40 -41
-6 -5 -2 -8 12 -8 18 0 22 -4 18 -25 -3 -14 0 -25 6 -25 5 0 8 7 4 15 -8 23
-1 19 46 -25 36 -33 41 -42 28 -50 -12 -9 -12 -10 5 -8 12 2 19 -2 17 -10 -1
-8 1 -11 6 -8 12 7 55 -52 47 -64 -4 -6 -1 -9 7 -8 7 2 12 -5 12 -14 -1 -10 3
-15 9 -11 6 4 8 0 4 -11 -5 -11 -3 -15 5 -10 7 5 9 0 6 -14 -4 -13 -2 -19 6
-16 15 6 87 -142 80 -164 -5 -15 -4 -15 6 -2 10 13 11 11 7 -8 -3 -12 -1 -20
4 -16 8 5 13 -12 12 -43 -1 -7 3 -11 7 -8 9 5 31 -65 24 -77 -3 -4 -1 -8 4 -8
13 0 53 -130 55 -179 1 -22 4 -36 8 -30 3 6 13 -25 23 -68 29 -133 38 -124 32
32 -4 90 -14 183 -31 261 -57 280 -151 464 -319 629 -131 128 -268 200 -441
230 -80 14 -222 18 -270 9z m245 -94 c8 -5 11 -10 5 -10 -5 0 -17 5 -25 10 -8
5 -10 10 -5 10 6 0 17 -5 25 -10z"/>
<path d="M6260 9043 c0 -5 11 -25 25 -45 14 -20 22 -43 20 -50 -3 -8 5 -23 17
-34 l23 -19 -19 23 c-11 12 -17 25 -14 28 10 9 79 -116 72 -128 -4 -7 -2 -8 4
-4 7 4 12 0 12 -10 0 -10 8 -26 17 -36 10 -11 16 -33 16 -51 -1 -22 0 -26 5
-14 6 14 12 9 30 -28 12 -26 19 -51 16 -57 -4 -6 -3 -8 3 -5 6 4 20 -16 32
-46 12 -28 26 -60 32 -70 5 -10 7 -28 4 -40 -4 -13 -3 -17 2 -10 6 8 17 -9 32
-50 13 -34 30 -77 38 -95 8 -18 11 -43 8 -55 -4 -13 -3 -17 2 -10 10 14 34
-60 83 -252 33 -126 70 -297 70 -322 0 -8 -5 -11 -11 -7 -7 4 -10 1 -7 -7 3
-8 10 -13 15 -12 13 3 57 -290 49 -323 -4 -14 -3 -23 2 -20 19 11 37 -352 37
-729 -1 -323 -9 -534 -30 -755 -20 -211 -38 -357 -46 -366 -5 -6 -6 -13 -3
-16 9 -9 -45 -341 -116 -713 -5 -27 -12 -72 -15 -100 -3 -27 -10 -79 -15 -115
-5 -36 -12 -87 -15 -115 -3 -27 -10 -93 -17 -145 -7 -59 -12 -246 -11 -490 0
-352 2 -410 21 -530 12 -74 23 -146 26 -160 26 -121 42 -186 63 -248 13 -40
21 -78 17 -84 -5 -7 -3 -8 6 -3 10 6 12 3 8 -13 -4 -12 -2 -22 4 -22 5 0 6 -4
3 -10 -3 -5 -1 -10 6 -10 7 0 10 -3 6 -6 -3 -3 5 -26 19 -51 13 -25 24 -51 24
-58 0 -7 9 -22 20 -35 11 -13 20 -29 20 -35 0 -7 7 -18 15 -25 19 -16 19 -31
0 -24 -8 4 -12 10 -9 15 3 5 0 9 -5 9 -6 0 -11 -4 -11 -10 0 -12 35 -31 43
-24 7 7 28 -32 25 -47 -2 -6 6 -16 17 -22 20 -12 50 -47 50 -59 0 -4 7 -13 15
-20 12 -11 12 -10 0 7 -14 19 -14 19 3 6 10 -8 16 -20 13 -28 -3 -8 -2 -12 2
-9 5 3 23 -4 41 -15 35 -21 52 -19 33 4 -7 8 -8 18 -4 22 4 5 2 5 -4 2 -13 -7
-67 81 -101 165 -83 205 -121 508 -109 868 4 113 11 241 16 285 4 44 13 130
20 190 13 135 58 414 105 652 35 184 52 263 105 493 29 126 74 359 86 440 3
19 7 46 9 60 12 62 46 422 56 590 10 167 6 618 -6 725 -3 22 -7 65 -9 95 -43
493 -157 951 -334 1339 -150 328 -324 577 -565 810 -69 67 -87 80 -87 64z"/>
<path d="M6270 8985 c0 -8 4 -15 10 -15 5 0 7 7 4 15 -4 8 -8 15 -10 15 -2 0
-4 -7 -4 -15z"/>
<path d="M5398 8973 c7 -3 16 -2 19 1 4 3 -2 6 -13 5 -11 0 -14 -3 -6 -6z"/>
<path d="M5438 8973 c7 -3 16 -2 19 1 4 3 -2 6 -13 5 -11 0 -14 -3 -6 -6z"/>
<path d="M5768 8903 c7 -3 16 -2 19 1 4 3 -2 6 -13 5 -11 0 -14 -3 -6 -6z"/>
<path d="M6341 8864 c0 -11 3 -14 6 -6 3 7 2 16 -1 19 -3 4 -6 -2 -5 -13z"/>
<path d="M5268 8841 c23 -9 39 -20 35 -24 -4 -5 -1 -5 7 -2 22 8 183 -72 177
-88 -3 -8 3 -14 15 -14 24 -2 50 -22 43 -33 -3 -5 -1 -12 5 -15 6 -4 10 -3 9
2 -4 24 6 20 59 -20 61 -48 108 -97 104 -109 -1 -5 4 -8 10 -8 7 0 22 -12 32
-27 12 -16 14 -23 5 -18 -8 5 0 -5 16 -21 17 -16 37 -44 44 -61 7 -18 17 -33
21 -33 8 0 25 -49 22 -62 -1 -5 3 -8 9 -8 6 0 9 -9 6 -20 -3 -11 -1 -20 3 -20
11 0 29 -53 46 -140 16 -88 18 -251 3 -336 -16 -93 -51 -228 -62 -242 -6 -7
-12 -27 -14 -43 -1 -17 -14 -55 -28 -85 -14 -30 -25 -59 -25 -65 0 -6 -5 -7
-12 -3 -6 4 -8 3 -4 -4 9 -14 -39 -121 -57 -128 -9 -3 -13 -13 -9 -26 4 -16 2
-19 -8 -13 -9 5 -11 4 -6 -3 4 -7 -4 -31 -18 -55 -15 -24 -26 -49 -26 -56 0
-24 47 -31 102 -15 29 8 63 16 75 17 12 1 25 6 29 10 5 4 1 5 -9 1 -34 -12
-16 6 19 21 20 8 37 15 38 15 0 0 0 -68 -2 -150 -4 -199 25 -432 69 -558 11
-30 17 -58 14 -63 -4 -5 -2 -9 4 -9 10 0 26 -56 22 -79 -1 -7 2 -10 8 -6 6 3
11 1 11 -5 0 -5 13 -38 29 -72 16 -33 27 -68 24 -77 -4 -13 -3 -13 5 -2 8 11
14 7 27 -20 10 -19 30 -50 45 -69 15 -19 31 -42 35 -50 8 -13 6 -13 -7 -2 -13
10 -18 10 -24 1 -4 -8 -3 -9 5 -5 7 5 48 -30 105 -88 75 -76 96 -93 105 -82
17 20 29 252 20 378 -13 184 -61 357 -146 522 -28 53 -42 89 -33 83 48 -34 89
-78 92 -98 2 -13 9 -23 16 -21 10 2 12 -4 7 -20 -5 -20 -4 -21 5 -5 11 17 5
41 -9 33 -4 -3 -8 4 -8 15 -2 16 1 17 12 7 31 -28 44 -38 51 -38 4 0 41 -16
82 -35 41 -20 76 -34 79 -32 2 3 -12 33 -31 68 -124 228 -195 513 -226 915
-45 585 -304 1039 -695 1220 -85 39 -291 94 -350 93 l-40 0 43 -18z"/>
<path d="M5936 8819 c5 -8 9 -17 9 -21 0 -9 11 -11 24 -6 5 2 -2 12 -17 22
-15 11 -22 13 -16 5z"/>
<path d="M5370 8770 c0 -5 5 -10 11 -10 5 0 7 5 4 10 -3 6 -8 10 -11 10 -2 0
-4 -4 -4 -10z"/>
<path d="M5423 8726 c0 -8 5 -12 10 -9 7 4 8 -1 3 -13 -6 -15 -5 -17 5 -6 11
10 10 15 -2 28 -14 13 -16 13 -16 0z"/>
<path d="M5184 8671 c0 -9 8 -17 17 -17 9 0 15 6 12 12 -7 20 -29 23 -29 5z"/>
<path d="M5654 8599 c14 -11 23 -25 20 -31 -5 -7 -2 -8 5 -3 9 5 7 13 -10 31
-12 13 -27 24 -32 24 -5 0 2 -9 17 -21z"/>
<path d="M4855 8589 c-4 -6 -5 -12 -2 -15 2 -3 7 2 10 11 7 17 1 20 -8 4z"/>
<path d="M6930 8440 c0 -5 5 -10 10 -10 6 0 10 -5 10 -11 0 -5 -4 -7 -10 -4
-6 3 -7 -1 -3 -10 4 -11 8 -13 13 -5 7 12 40 -29 40 -51 0 -7 3 -10 6 -6 7 7
50 -48 60 -75 4 -10 10 -18 15 -18 5 0 9 -7 9 -16 0 -8 7 -22 15 -30 8 -8 11
-22 8 -31 -4 -10 -2 -14 4 -10 13 8 44 -52 36 -68 -4 -5 -3 -7 2 -3 11 10 47
-71 40 -89 -2 -8 -1 -12 4 -8 9 5 34 -64 75 -205 26 -88 55 -231 71 -347 23
-168 48 -531 38 -561 -10 -33 -10 -391 0 -522 4 -52 14 -135 23 -185 16 -93
68 -270 86 -292 6 -7 8 -20 4 -28 -3 -9 -2 -14 3 -11 10 6 37 -52 33 -71 -1
-6 3 -15 9 -19 8 -5 10 -2 5 7 -4 8 2 3 13 -11 12 -15 18 -33 15 -45 -4 -16
-3 -17 5 -5 8 12 14 9 38 -15 15 -17 28 -39 28 -49 0 -11 8 -20 18 -22 18 -2
18 -2 1 17 -9 10 -12 19 -6 19 6 0 14 -4 17 -10 3 -5 11 -10 16 -10 6 0 -3 17
-19 38 -99 126 -141 326 -143 677 0 105 5 269 11 365 23 334 8 619 -45 841
-98 406 -264 692 -506 872 -39 29 -49 33 -49 17z"/>
<path d="M6577 8374 c-3 -5 1 -15 9 -22 16 -14 18 -5 5 17 -5 7 -11 9 -14 5z"/>
<path d="M4660 8368 c0 -3 11 -17 25 -32 14 -15 25 -23 25 -18 0 5 -11 19 -25
32 -14 13 -25 21 -25 18z"/>
<path d="M5117 8019 c7 -7 15 -10 18 -7 3 3 -2 9 -12 12 -14 6 -15 5 -6 -5z"/>
<path d="M5390 8015 c-147 -49 -236 -193 -196 -316 9 -28 14 -55 10 -61 -5 -7
-2 -8 6 -3 10 6 12 4 7 -8 -3 -9 -3 -16 1 -15 13 4 62 -49 62 -67 0 -13 3 -15
13 -6 10 8 17 7 26 -2 7 -7 42 -12 90 -12 70 0 82 3 120 29 72 50 99 134 67
209 -31 72 -99 102 -168 73 -50 -21 -48 -27 5 -20 31 4 53 1 75 -10 36 -19 44
-33 10 -16 -22 11 -22 10 -4 -4 10 -8 23 -17 28 -18 6 -2 12 -22 15 -44 6 -55
-26 -109 -74 -125 -110 -36 -213 41 -213 158 0 71 32 119 105 159 52 29 69 33
125 32 76 -1 135 -22 126 -43 -3 -8 -1 -15 4 -15 6 0 10 5 10 12 0 6 9 3 20
-7 12 -10 18 -25 15 -32 -3 -8 0 -11 6 -8 13 9 40 -25 34 -42 -2 -7 1 -12 7
-10 13 2 30 -52 21 -66 -3 -6 -1 -7 5 -3 7 4 13 -14 18 -50 5 -41 3 -58 -6
-64 -7 -4 -10 -12 -6 -18 8 -13 -24 -103 -35 -96 -5 3 -6 -1 -4 -9 3 -7 -4
-24 -15 -37 -11 -13 -17 -26 -14 -29 9 -9 70 66 95 117 34 69 38 188 9 265
-50 133 -148 207 -283 213 -46 3 -88 -2 -117 -11z"/>
<path d="M6702 7980 c0 -14 2 -19 5 -12 2 6 2 18 0 25 -3 6 -5 1 -5 -13z"/>
<path d="M4711 7898 c-21 -46 -43 -98 -50 -115 -8 -18 -18 -30 -24 -26 -5 3
-7 1 -4 -5 4 -5 -41 -117 -99 -249 -148 -332 -141 -318 -148 -302 -3 8 -3 4
-1 -8 3 -12 1 -24 -5 -28 -5 -3 -10 -14 -10 -24 0 -9 -5 -22 -12 -29 -6 -6
-13 -22 -15 -34 -2 -12 -15 -42 -28 -66 -14 -25 -25 -52 -25 -61 0 -14 -2 -14
-11 -1 -9 13 -10 12 -5 -3 7 -22 -14 -68 -27 -60 -6 3 -7 1 -4 -4 8 -13 -27
-96 -36 -87 -3 3 -3 -3 0 -14 3 -14 -4 -28 -21 -43 -15 -13 -24 -29 -22 -35 7
-18 -29 -109 -42 -107 -7 2 -9 -4 -5 -14 4 -9 2 -14 -3 -11 -5 4 -10 -6 -11
-21 -1 -16 -13 -48 -26 -73 -13 -25 -27 -55 -30 -68 -3 -12 -10 -20 -14 -17
-5 3 -10 -6 -11 -21 -2 -36 -43 -123 -54 -116 -5 3 -8 2 -7 -3 4 -21 -2 -44
-10 -39 -5 3 -9 0 -8 -7 1 -34 -4 -48 -15 -41 -6 4 -8 3 -5 -3 9 -14 -38 -115
-48 -105 -5 4 -5 2 -1 -5 3 -6 -9 -46 -29 -87 -19 -41 -35 -80 -35 -86 0 -6
-7 -13 -15 -16 -8 -4 -13 -9 -11 -13 2 -3 -2 -21 -9 -39 -8 -18 -13 -33 -13
-35 1 -1 -6 -15 -15 -32 -9 -16 -34 -69 -55 -117 -21 -49 -42 -85 -47 -80 -4
4 -5 2 -2 -4 8 -15 -33 -115 -44 -109 -4 3 -7 -3 -7 -12 1 -15 -110 -273 -229
-533 -13 -30 -33 -73 -43 -95 -82 -187 -105 -233 -113 -228 -4 3 -8 -1 -6 -8
3 -28 -1 -40 -13 -33 -7 5 -8 3 -3 -6 7 -12 -9 -52 -75 -192 -15 -32 -30 -55
-33 -51 -3 3 -5 -3 -4 -14 1 -26 -23 -83 -36 -83 -6 0 -8 -3 -4 -6 3 -4 0 -21
-8 -38 -89 -203 -136 -301 -144 -299 -6 2 -8 -4 -5 -11 3 -8 -17 -63 -44 -123
-28 -59 -53 -118 -57 -131 -3 -12 -11 -20 -16 -17 -5 4 -9 -3 -9 -14 0 -31
-71 -181 -83 -174 -5 3 -7 2 -4 -4 6 -9 -26 -106 -42 -128 -4 -5 -18 -35 -30
-65 -43 -106 -75 -170 -83 -170 -4 0 -7 -3 -7 -7 4 -25 -2 -43 -13 -37 -6 4
-8 3 -4 -4 9 -15 -25 -83 -37 -75 -6 4 -8 0 -4 -10 7 -20 -16 -70 -28 -59 -5
4 -5 2 -1 -5 6 -11 -60 -162 -77 -174 -5 -3 -8 -9 -7 -13 3 -15 -74 -156 -80
-146 -4 6 -7 -4 -7 -22 0 -17 -5 -34 -11 -36 -7 -2 -12 -10 -12 -18 0 -8 -4
-14 -10 -14 -5 0 -9 -6 -7 -12 1 -7 -4 -12 -11 -10 -8 1 -11 -2 -7 -8 7 -11
-34 -100 -46 -100 -4 0 -9 -10 -11 -22 -2 -13 -9 -22 -16 -20 -8 1 -11 -2 -7
-8 9 -14 -26 -70 -39 -63 -6 3 -8 3 -4 -2 9 -10 -18 -61 -85 -160 -30 -44 -59
-79 -65 -78 -6 2 -9 -3 -6 -11 3 -8 -5 -21 -18 -30 -13 -9 -22 -19 -20 -22 4
-6 -88 -114 -138 -163 -152 -146 -397 -268 -635 -316 -44 -9 -80 -17 -80 -18
0 -1 -6 -18 -13 -38 -14 -41 -15 -64 -2 -34 7 14 9 -9 9 -70 -1 -49 -1 -94 0
-100 1 -7 479 -9 1419 -8 779 2 1443 3 1475 3 l57 0 0 125 c0 88 -3 125 -12
125 -6 0 -108 9 -227 21 -199 19 -417 57 -533 92 -128 40 -260 151 -326 276
-122 228 -82 579 120 1046 19 44 103 238 186 430 82 193 156 363 163 378 l13
28 280 -2 c196 -1 283 -5 288 -13 6 -8 8 -7 8 2 0 17 106 17 113 0 4 -9 8 -10
14 -2 5 7 68 11 186 11 l177 0 1 -26 1 -26 7 25 c6 20 15 26 50 31 34 4 45 2
56 -14 13 -18 13 -18 25 0 10 16 11 15 7 -9 -2 -15 0 -25 4 -22 5 3 9 14 9 25
0 16 7 19 45 19 25 0 45 -3 45 -7 0 -9 1064 -6 1097 3 21 6 21 9 16 137 -3 73
-8 182 -12 242 l-6 110 -1087 3 c-599 1 -1088 4 -1088 6 0 9 99 233 420 951
30 66 384 862 662 1487 255 572 262 587 273 555 7 -17 35 -82 62 -142 27 -61
47 -117 45 -124 -3 -8 0 -11 7 -7 6 4 11 1 11 -8 0 -9 11 -39 24 -68 41 -92
46 -109 40 -120 -4 -6 -3 -8 3 -5 13 8 36 -41 27 -55 -4 -7 -2 -8 4 -4 7 4 12
3 12 -3 0 -6 14 -40 30 -76 17 -37 31 -77 32 -90 1 -13 5 -22 9 -19 8 4 59
-110 59 -132 0 -8 5 -14 11 -14 6 0 9 -9 6 -20 -7 -28 -1 -26 50 20 25 22 51
37 57 33 6 -3 8 -3 4 2 -12 12 28 36 49 29 14 -4 15 -4 4 4 -11 8 -9 12 9 22
14 8 20 8 16 1 -5 -7 -1 -9 8 -5 9 3 14 10 11 14 -7 11 19 19 47 14 19 -4 20
-3 4 4 -18 8 -18 9 -2 15 10 4 48 10 86 13 37 4 73 10 78 13 7 4 4 34 -9 86
-11 44 -25 137 -31 207 l-12 126 -39 6 c-84 14 -170 86 -202 170 -25 65 -16
130 28 214 19 38 32 73 29 79 -4 6 -52 12 -108 15 -92 3 -108 7 -176 40 -172
85 -277 261 -266 442 l5 72 -58 32 c-31 17 -78 48 -103 67 l-47 35 -38 -82z
m-528 -1183 c-3 -9 -8 -14 -10 -11 -3 3 -2 9 2 15 9 16 15 13 8 -4z"/>
<path d="M5460 7929 c0 -5 5 -7 10 -4 6 3 10 8 10 11 0 2 -4 4 -10 4 -5 0 -10
-5 -10 -11z"/>
<path d="M5358 7893 c7 -3 16 -2 19 1 4 3 -2 6 -13 5 -11 0 -14 -3 -6 -6z"/>
<path d="M6600 7471 c0 -20 -6 -31 -17 -34 -17 -4 -17 -5 0 -6 12 -1 17 -8 15
-18 -1 -10 1 -24 5 -30 5 -7 5 -13 0 -13 -4 0 -8 -40 -8 -90 0 -49 3 -82 8
-72 4 9 5 -93 2 -228 -3 -135 -6 -280 -7 -322 0 -43 -4 -75 -9 -72 -5 3 -9 0
-9 -5 0 -6 3 -11 8 -11 19 0 -33 -502 -73 -705 -25 -123 -77 -300 -86 -291 -2
3 -6 -5 -7 -18 -2 -32 -27 -77 -37 -68 -5 4 -5 2 -1 -5 8 -15 -37 -97 -89
-160 -71 -86 -117 -125 -194 -162 -70 -33 -83 -36 -166 -35 -73 0 -102 5 -151
26 -259 108 -416 406 -349 662 20 77 78 186 117 222 l32 29 -18 -29 c-10 -16
-13 -25 -7 -22 7 5 11 -5 11 -27 0 -20 10 -49 24 -70 13 -19 21 -39 18 -43 -4
-4 -2 -4 4 -1 13 7 67 -17 58 -25 -3 -3 17 -3 43 -1 60 7 101 29 131 74 20 29
23 44 20 96 -6 90 -55 135 -148 135 -69 0 -131 -32 -202 -105 -79 -79 -129
-136 -105 -117 18 13 18 12 1 -23 -9 -20 -21 -34 -26 -31 -4 3 -5 -1 -2 -9 3
-8 -2 -32 -11 -53 -9 -22 -19 -74 -21 -118 -2 -43 -5 -80 -7 -83 -4 -4 31
-145 38 -152 3 -2 -1 -13 -7 -24 -8 -16 -8 -19 5 -14 10 4 19 -4 28 -26 8 -18
14 -36 15 -42 0 -5 2 -16 2 -23 1 -7 6 -11 11 -7 14 8 34 -33 27 -52 -6 -14
-4 -14 11 -2 15 12 16 12 10 -3 -4 -12 -2 -18 7 -18 14 0 66 -62 66 -78 0 -5
12 -17 28 -26 l27 -17 -24 20 c-13 12 -19 21 -13 21 6 0 20 -12 32 -27 12 -16
24 -27 26 -25 6 3 3 -12 -3 -18 -4 -3 -3 1 2 9 6 10 4 12 -4 7 -9 -6 -9 -11 0
-22 13 -16 39 -19 39 -3 0 5 -5 7 -12 3 -7 -4 -8 -3 -4 4 5 9 13 9 27 2 22
-12 24 -21 7 -38 -11 -11 2 -11 37 -1 14 4 115 -23 115 -32 0 -3 12 -4 26 -1
16 3 25 1 21 -5 -12 -19 208 15 238 38 6 4 19 9 30 11 11 1 22 5 25 8 3 3 24
18 48 34 64 44 177 169 217 241 78 139 134 302 170 492 64 340 71 920 19 1471
-10 100 -21 182 -26 182 -4 0 -8 -13 -8 -29z"/>
<path d="M6820 7260 c0 -5 5 -10 11 -10 5 0 7 5 4 10 -3 6 -8 10 -11 10 -2 0
-4 -4 -4 -10z"/>
<path d="M7351 7084 c0 -11 3 -14 6 -6 3 7 2 16 -1 19 -3 4 -6 -2 -5 -13z"/>
<path d="M5680 7020 c0 -5 5 -10 11 -10 5 0 7 5 4 10 -3 6 -8 10 -11 10 -2 0
-4 -4 -4 -10z"/>
<path d="M7801 6918 c-1 -9 6 -49 14 -89 9 -40 13 -74 10 -77 -3 -3 -1 -10 4
-16 22 -26 44 -275 44 -496 1 -234 -17 -480 -35 -491 -7 -4 -7 -8 0 -10 7 -3
7 -21 1 -54 -5 -27 -20 -115 -34 -195 -37 -210 -87 -413 -98 -397 -5 8 -6 5
-3 -8 3 -11 -1 -45 -10 -75 -39 -137 -53 -187 -63 -215 -45 -134 -61 -185 -61
-198 0 -8 -7 -20 -15 -27 -9 -7 -13 -20 -10 -27 7 -20 -36 -155 -55 -173 -4
-3 -21 -30 -39 -60 -19 -30 -36 -57 -40 -60 -3 -3 -6 -12 -6 -20 0 -8 -5 -14
-12 -13 -7 2 -10 -3 -7 -11 3 -8 -3 -31 -14 -53 -10 -21 -24 -57 -32 -80 -7
-23 -16 -41 -19 -39 -3 2 -7 -8 -7 -22 -1 -15 -13 -70 -27 -123 -14 -53 -27
-126 -30 -163 -3 -38 -8 -71 -11 -74 -3 -3 -6 1 -6 9 0 12 -2 12 -10 -1 -5 -9
-5 -17 1 -21 6 -3 9 -14 8 -25 -4 -59 -3 -414 2 -414 3 0 9 -28 13 -62 3 -35
17 -108 30 -164 14 -55 24 -109 22 -120 -2 -10 -1 -12 2 -4 2 8 15 -14 28 -50
12 -35 20 -68 17 -73 -3 -6 -1 -7 6 -3 9 6 10 0 6 -21 -4 -17 -3 -23 2 -16 6
8 23 -16 53 -74 25 -47 45 -89 45 -93 0 -5 4 -12 9 -17 5 -5 6 -2 1 7 -6 11
-5 12 4 4 7 -6 19 -29 26 -50 8 -22 14 -32 15 -24 0 8 12 0 29 -20 20 -24 25
-37 17 -42 -6 -5 -2 -8 11 -8 12 0 25 -5 29 -12 5 -7 2 -9 -7 -4 -8 4 -6 1 5
-6 51 -36 66 -51 59 -61 -3 -7 -3 -9 2 -5 10 10 37 -11 30 -23 -6 -9 43 -44
51 -36 3 3 -4 8 -15 12 -12 3 -21 11 -21 17 0 6 16 -2 35 -17 45 -34 196 -105
224 -105 12 0 21 -3 21 -7 0 -5 25 -9 55 -11 30 -2 55 1 55 5 0 5 -22 16 -48
25 -116 42 -258 164 -350 303 -153 229 -234 517 -249 874 -17 425 78 818 267
1104 54 82 176 211 190 202 5 -3 12 0 16 6 4 8 3 9 -4 5 -7 -4 -12 -5 -12 -3
0 12 92 67 102 61 6 -4 8 -3 5 3 -4 6 -1 13 6 16 10 4 12 -12 10 -64 -2 -40 1
-69 7 -69 5 0 7 7 4 15 -4 8 8 2 26 -15 18 -16 40 -30 50 -30 11 0 22 -5 25
-10 4 -6 11 -8 16 -5 5 4 9 2 9 -3 0 -6 18 -6 46 -1 25 5 48 8 52 6 14 -4 83
57 99 86 20 39 19 91 -2 123 -70 107 -379 75 -569 -59 -27 -19 -28 -19 -22 -1
12 41 68 294 86 394 28 150 57 365 70 508 11 125 15 614 6 687 -3 22 -11 81
-17 130 -20 167 -116 579 -118 513z"/>
<path d="M7345 6880 c-3 -5 -1 -10 4 -10 6 0 11 5 11 10 0 6 -2 10 -4 10 -3 0
-8 -4 -11 -10z"/>
<path d="M6863 6810 c0 -25 2 -35 4 -22 2 12 2 32 0 45 -2 12 -4 2 -4 -23z"/>
<path d="M6375 6609 c-4 -6 -5 -12 -2 -15 2 -3 7 2 10 11 7 17 1 20 -8 4z"/>
<path d="M7337 6498 c-2 -7 -1 -22 4 -33 6 -16 8 -14 8 13 1 33 -4 41 -12 20z"/>
<path d="M7300 6471 c0 -17 4 -32 8 -35 4 -2 6 11 4 30 -5 42 -12 45 -12 5z"/>
<path d="M5250 6332 c0 -7 -3 -11 -7 -9 -5 3 -9 -7 -10 -21 l-1 -27 14 25 c7
14 13 19 14 11 0 -8 3 -12 6 -8 3 3 1 14 -5 24 -6 11 -11 13 -11 5z"/>
<path d="M6065 6140 c-3 -5 -1 -10 4 -10 6 0 11 5 11 10 0 6 -2 10 -4 10 -3 0
-8 -4 -11 -10z"/>
<path d="M5526 5943 c-6 -14 -5 -15 5 -6 7 7 10 15 7 18 -3 3 -9 -2 -12 -12z"/>
<path d="M6220 5911 c0 -6 4 -13 10 -16 6 -3 7 1 4 9 -7 18 -14 21 -14 7z"/>
<path d="M6267 5829 c7 -7 15 -10 18 -7 3 3 -2 9 -12 12 -14 6 -15 5 -6 -5z"/>
<path d="M7502 5790 c0 -14 2 -19 5 -12 2 6 2 18 0 25 -3 6 -5 1 -5 -13z"/>
<path d="M5392 5390 c0 -14 2 -19 5 -12 2 6 2 18 0 25 -3 6 -5 1 -5 -13z"/>
<path d="M7415 5332 c-20 -14 -57 -60 -59 -73 -2 -8 -6 -21 -9 -29 -16 -35
-80 -309 -103 -435 -3 -16 -9 -32 -15 -33 -5 -2 -7 -8 -4 -12 3 -5 -2 -42 -11
-82 -9 -40 -24 -113 -33 -163 -10 -49 -19 -84 -22 -76 -3 8 -5 -1 -5 -20 0
-47 -56 -329 -64 -324 -3 2 -4 -9 -2 -26 3 -18 0 -29 -8 -29 -7 0 -9 -8 -5
-20 3 -10 1 -36 -4 -57 -15 -57 -61 -330 -63 -374 -1 -22 -6 -39 -11 -39 -5 0
-4 -6 2 -14 17 -20 11 -95 -8 -106 -10 -6 -11 -10 -3 -10 6 0 12 -12 12 -26 0
-22 -3 -24 -14 -15 -11 9 -16 9 -22 -1 -4 -7 -4 -10 1 -6 21 19 32 -25 38
-157 4 -77 16 -189 26 -250 11 -60 17 -113 15 -117 -3 -4 0 -8 5 -8 6 0 11 -8
11 -17 0 -10 12 -63 26 -118 14 -55 27 -107 28 -115 2 -8 6 -22 9 -30 3 -8 15
-46 28 -85 12 -38 28 -83 35 -100 7 -16 18 -49 26 -72 7 -24 16 -43 20 -43 5
0 8 -13 8 -29 0 -16 6 -31 15 -35 8 -3 15 -11 15 -17 0 -12 83 -151 107 -180
7 -8 13 -22 13 -30 0 -8 9 -22 20 -32 11 -9 20 -12 20 -7 0 6 -7 13 -15 16 -8
4 -15 13 -15 21 0 10 11 2 28 -18 15 -19 37 -45 50 -57 12 -13 20 -28 16 -34
-4 -6 -3 -8 3 -5 6 4 18 -2 27 -12 11 -13 14 -21 7 -26 -6 -3 -11 -11 -11 -18
0 -6 7 -2 15 9 14 19 15 18 40 -9 14 -15 23 -32 19 -39 -4 -7 -3 -8 5 -4 18
12 44 -14 31 -29 -8 -10 -8 -15 1 -21 8 -5 9 -3 4 6 -6 10 -4 12 9 7 12 -5 15
-3 10 5 -4 6 9 -1 29 -16 41 -31 46 -38 20 -29 -10 3 -15 3 -12 -1 4 -4 16 -8
28 -11 34 -6 45 -16 30 -27 -11 -7 -9 -8 4 -4 11 3 33 -4 55 -19 20 -14 31
-25 25 -25 -7 0 -15 5 -18 10 -3 6 -12 10 -18 10 -21 -1 26 -30 47 -30 12 0
28 -5 36 -11 13 -10 13 -10 -1 -6 -9 3 -16 -1 -16 -8 0 -7 8 -10 19 -7 11 2
29 0 41 -6 84 -40 157 -71 185 -77 26 -5 32 -11 27 -23 -5 -14 -4 -15 6 -4 18
17 64 15 79 -3 7 -8 18 -15 24 -15 8 0 8 2 -1 8 -6 4 62 7 150 8 111 1 192 7
257 19 52 10 110 19 128 19 22 -1 29 2 20 9 -9 6 -6 7 10 4 12 -3 22 -1 22 4
0 5 9 9 20 9 11 0 28 4 38 10 41 23 146 59 156 53 6 -3 8 -3 4 2 -4 4 14 18
40 31 55 28 56 28 46 12 -5 -9 -2 -9 9 1 19 15 23 26 5 15 -7 -4 -8 -3 -4 4 4
7 11 12 17 12 20 0 147 117 197 183 210 274 159 599 -139 883 -152 144 -355
252 -533 283 -76 14 -209 14 -261 1 -151 -40 -280 -144 -341 -276 -24 -53 -27
-71 -27 -169 0 -131 4 -176 14 -169 7 4 18 -19 19 -38 0 -4 14 -22 30 -39 16
-18 27 -36 24 -41 -3 -5 -2 -7 3 -6 4 1 26 -10 48 -25 22 -15 35 -27 29 -27
-5 0 -16 6 -24 13 -12 10 -12 9 0 -6 8 -11 21 -16 32 -14 10 3 35 1 55 -5 58
-16 142 -1 182 32 27 23 34 36 35 67 1 34 -3 40 -34 56 -29 16 -51 18 -135 13
-55 -3 -115 -8 -134 -12 l-34 -7 7 79 c4 43 14 108 22 143 57 248 221 350 475
297 70 -15 211 -74 204 -86 -2 -3 6 -6 18 -6 12 1 21 -4 20 -11 -2 -6 5 -11
15 -11 19 2 112 -59 112 -73 0 -5 6 -9 13 -9 18 0 69 -54 65 -70 -2 -7 8 -16
22 -20 17 -4 25 -13 24 -28 0 -11 3 -19 8 -16 5 3 15 0 23 -6 17 -14 48 -73
34 -65 -5 3 -6 -1 -3 -9 3 -9 10 -13 15 -10 8 5 13 -9 10 -28 0 -5 4 -8 10 -8
6 0 8 -7 5 -16 -3 -8 -2 -13 3 -10 5 3 14 -7 20 -22 26 -64 42 -222 22 -222
-5 0 -7 -8 -4 -18 2 -10 -1 -31 -7 -47 -6 -17 -12 -32 -12 -35 0 -3 -9 -23
-20 -45 -105 -209 -388 -339 -768 -352 -430 -15 -784 118 -1019 383 -269 303
-421 767 -421 1283 0 290 44 627 140 1086 72 340 102 488 126 614 27 143 27
143 45 120 10 -13 19 -28 19 -34 0 -5 -5 -3 -10 5 -5 8 -10 11 -10 5 0 -20 17
-38 25 -26 5 9 16 6 41 -8 19 -11 34 -16 34 -11 0 6 8 10 18 10 59 1 114 118
93 198 -17 61 -54 92 -110 92 -25 0 -50 -4 -56 -8z"/>
<path d="M6335 5052 c-73 -25 -158 -86 -213 -151 -26 -31 -50 -58 -53 -61 -4
-3 -12 -21 -17 -40 -6 -19 -23 -69 -37 -110 -36 -106 -40 -210 -21 -638 9
-200 16 -381 16 -403 0 -67 21 -53 89 61 68 114 86 190 86 373 0 115 3 157 12
157 16 0 27 -20 27 -50 -1 -22 -1 -22 3 -2 3 16 11 22 32 22 43 0 52 17 26 46
-36 38 -123 221 -141 294 -11 43 -15 90 -12 143 4 66 11 90 44 155 26 51 45
77 56 76 9 -1 14 4 12 11 -3 6 11 24 30 38 38 29 51 34 40 15 -5 -9 -2 -9 9 1
18 15 23 26 7 16 -5 -3 -10 -4 -10 -1 0 3 24 19 53 36 59 34 41 39 -38 12z"/>
<path d="M5798 5023 c7 -3 16 -2 19 1 4 3 -2 6 -13 5 -11 0 -14 -3 -6 -6z"/>
<path d="M6038 5013 c7 -3 16 -2 19 1 4 3 -2 6 -13 5 -11 0 -14 -3 -6 -6z"/>
<path d="M6450 4794 c-6 -14 -10 -32 -10 -40 0 -8 -3 -14 -7 -14 -5 0 -8 -10
-9 -22 0 -13 -12 -90 -27 -173 -14 -82 -30 -181 -35 -220 -11 -78 -12 -731 -2
-714 7 10 26 -132 24 -176 -1 -11 2 -22 5 -25 11 -9 41 -169 35 -187 -4 -13
-3 -14 3 -6 6 9 15 -10 26 -57 15 -64 67 -210 102 -288 9 -18 11 -31 5 -27 -6
3 -7 0 -4 -9 3 -9 10 -16 14 -16 10 0 62 -103 59 -116 -4 -16 13 -44 22 -38 8
5 13 -9 10 -28 0 -5 4 -8 10 -8 5 0 7 -5 3 -12 -4 -7 -3 -8 4 -4 12 7 35 -27
25 -38 -3 -3 -1 -6 6 -6 8 0 10 -8 7 -22 -3 -13 -3 -18 0 -11 4 10 8 10 19 0
7 -7 10 -16 7 -21 -3 -5 0 -6 5 -3 12 7 47 -39 39 -51 -2 -4 6 -9 18 -10 14
-1 23 4 23 13 0 8 -5 13 -10 12 -5 -1 -12 4 -15 12 -3 9 0 11 9 6 8 -5 12 -6
9 -2 -3 3 -9 6 -15 7 -19 4 -121 225 -168 365 -86 256 -132 470 -171 800 -21
177 -28 401 -23 680 4 170 9 328 12 350 17 126 15 153 -5 99z"/>
<path d="M7221 4784 c0 -11 3 -14 6 -6 3 7 2 16 -1 19 -3 4 -6 -2 -5 -13z"/>
<path d="M7590 4755 c-7 -9 -11 -17 -9 -20 3 -2 10 5 17 15 14 24 10 26 -8 5z"/>
<path d="M8060 4549 c0 -5 5 -7 10 -4 6 3 10 8 10 11 0 2 -4 4 -10 4 -5 0 -10
-5 -10 -11z"/>
<path d="M8240 4519 c0 -5 5 -7 10 -4 6 3 10 8 10 11 0 2 -4 4 -10 4 -5 0 -10
-5 -10 -11z"/>
<path d="M6340 4351 c0 -6 4 -13 10 -16 6 -3 7 1 4 9 -7 18 -14 21 -14 7z"/>
<path d="M8215 4240 c-209 -31 -399 -150 -500 -315 -10 -16 -28 -41 -39 -54
-12 -13 -16 -21 -9 -17 9 5 9 -1 1 -26 -32 -99 -40 -165 -33 -273 3 -60 7
-124 8 -142 1 -17 5 -29 9 -27 9 6 20 -29 15 -47 -2 -8 -2 -10 1 -6 5 9 71
-92 72 -109 0 -6 9 -19 20 -29 11 -10 20 -24 20 -32 0 -8 4 -12 9 -8 5 3 12
-4 16 -15 3 -11 9 -20 13 -20 4 0 27 -18 51 -41 25 -22 58 -48 75 -57 61 -34
95 -60 89 -66 -4 -4 4 -5 18 -4 14 2 23 -2 22 -9 -2 -7 4 -10 12 -7 8 4 15 8
15 11 0 3 -23 31 -52 62 -175 191 -252 366 -244 556 5 103 23 172 72 265 37
71 140 194 155 184 5 -3 9 0 9 6 0 6 5 8 12 4 6 -4 8 -3 5 3 -7 11 91 83 111
83 7 0 12 4 12 8 0 10 90 43 100 37 5 -3 10 1 12 7 3 9 30 13 89 12 55 0 74 2
54 7 -17 5 -5 5 30 2 79 -6 137 -22 130 -33 -3 -6 1 -7 10 -4 17 7 125 -42
125 -57 0 -5 6 -9 14 -9 8 0 18 -5 22 -12 4 -7 3 -8 -4 -4 -7 4 -12 5 -12 1 0
-3 11 -10 25 -15 14 -5 25 -15 25 -22 0 -9 -3 -9 -11 2 -9 13 -10 13 -6 0 2
-8 9 -15 15 -15 7 0 11 -3 10 -7 -2 -4 7 -15 20 -23 17 -13 20 -20 12 -35 -14
-27 -12 -37 3 -16 13 17 14 16 26 -12 7 -17 10 -41 6 -54 -5 -18 -4 -20 4 -8
6 8 11 11 12 5 0 -5 3 -19 6 -30 19 -69 -2 -275 -28 -275 -5 0 -8 -3 -7 -7 3
-17 -15 -62 -23 -57 -5 3 -9 -3 -9 -13 0 -10 -12 -32 -27 -49 -16 -17 -33 -40
-39 -50 -7 -11 -19 -18 -27 -18 -9 1 -15 -3 -14 -9 3 -18 -93 -65 -159 -77
-174 -33 -351 69 -388 224 l-7 29 28 -34 c15 -18 36 -41 46 -51 9 -10 17 -22
17 -28 0 -5 5 -10 11 -10 5 0 8 3 5 8 -2 4 13 6 35 4 26 -3 37 -8 32 -16 -4
-6 8 1 26 17 18 15 36 27 40 27 15 0 43 79 43 119 -1 54 -26 105 -74 145 -124
106 -259 3 -261 -199 0 -66 22 -177 34 -170 4 3 5 -3 2 -13 -2 -10 3 -24 11
-31 9 -8 16 -10 16 -5 0 4 17 -8 38 -28 47 -46 132 -92 199 -108 54 -12 234
-11 226 3 -2 4 5 7 15 7 11 0 36 7 56 15 20 8 36 12 36 8 0 -4 6 0 13 8 6 9
32 31 56 49 55 43 125 139 151 208 36 97 44 186 25 288 -23 125 -69 210 -165
304 -109 107 -238 166 -413 190 -86 11 -127 11 -202 0z"/>
<path d="M5981 3934 c0 -11 3 -14 6 -6 3 7 2 16 -1 19 -3 4 -6 -2 -5 -13z"/>
<path d="M7631 3774 c0 -11 3 -14 6 -6 3 7 2 16 -1 19 -3 4 -6 -2 -5 -13z"/>
<path d="M8891 3764 c0 -11 3 -14 6 -6 3 7 2 16 -1 19 -3 4 -6 -2 -5 -13z"/>
<path d="M6581 3534 c0 -11 3 -14 6 -6 3 7 2 16 -1 19 -3 4 -6 -2 -5 -13z"/>
<path d="M6381 3374 c0 -11 3 -14 6 -6 3 7 2 16 -1 19 -3 4 -6 -2 -5 -13z"/>
<path d="M6960 3335 c0 -8 4 -15 10 -15 5 0 7 7 4 15 -4 8 -8 15 -10 15 -2 0
-4 -7 -4 -15z"/>
<path d="M8174 3278 c-4 -7 -3 -10 1 -5 5 4 18 -1 29 -10 21 -18 21 -18 2 5
-22 26 -23 26 -32 10z"/>
<path d="M8220 3228 c0 -6 3 -8 7 -5 3 4 13 1 22 -6 14 -11 14 -10 2 6 -15 20
-31 22 -31 5z"/>
<path d="M2591 3214 c0 -11 3 -14 6 -6 3 7 2 16 -1 19 -3 4 -6 -2 -5 -13z"/>
<path d="M8265 3199 c-4 -6 -4 -13 -1 -16 3 -4 6 -1 6 6 0 7 5 9 12 5 7 -4 8
-3 4 4 -9 15 -13 15 -21 1z"/>
<path d="M6420 3191 c0 -6 4 -13 10 -16 6 -3 7 1 4 9 -7 18 -14 21 -14 7z"/>
<path d="M8408 3143 c7 -3 16 -2 19 1 4 3 -2 6 -13 5 -11 0 -14 -3 -6 -6z"/>
<path d="M7235 3110 c3 -5 8 -10 11 -10 2 0 4 5 4 10 0 6 -5 10 -11 10 -5 0
-7 -4 -4 -10z"/>
<path d="M6991 3094 c0 -11 3 -14 6 -6 3 7 2 16 -1 19 -3 4 -6 -2 -5 -13z"/>
<path d="M6444 3079 c-4 -8 -3 -9 4 -5 7 4 12 1 12 -8 0 -8 4 -17 9 -20 5 -4
7 3 4 14 -7 26 -19 34 -29 19z"/>
<path d="M6620 3041 c0 -6 4 -13 10 -16 6 -3 7 1 4 9 -7 18 -14 21 -14 7z"/>
<path d="M7980 2976 c0 -2 8 -10 18 -17 15 -13 16 -12 3 4 -13 16 -21 21 -21
13z"/>
<path d="M6671 2894 c0 -11 3 -14 6 -6 3 7 2 16 -1 19 -3 4 -6 -2 -5 -13z"/>
<path d="M6680 2865 c0 -5 5 -17 10 -25 5 -8 10 -10 10 -5 0 6 -5 17 -10 25
-5 8 -10 11 -10 5z"/>
<path d="M6590 2741 c0 -5 7 -12 16 -15 14 -5 15 -4 4 9 -14 17 -20 19 -20 6z"/>
<path d="M7386 2637 c3 -10 9 -15 12 -12 3 3 0 11 -7 18 -10 9 -11 8 -5 -6z"/>
<path d="M9180 2501 c0 -10 19 -25 25 -20 1 2 -3 10 -11 17 -8 7 -14 8 -14 3z"/>
<path d="M8065 2339 c-4 -6 -5 -12 -2 -15 2 -3 7 2 10 11 7 17 1 20 -8 4z"/>
<path d="M7630 2310 c0 -5 5 -10 11 -10 5 0 7 5 4 10 -3 6 -8 10 -11 10 -2 0
-4 -4 -4 -10z"/>
<path d="M7783 2185 c0 -7 6 -11 14 -8 7 3 13 6 13 8 0 2 -6 5 -13 8 -8 3 -14
-1 -14 -8z"/>
<path d="M9302 2170 c0 -14 2 -19 5 -12 2 6 2 18 0 25 -3 6 -5 1 -5 -13z"/>
<path d="M7850 2156 c0 -2 7 -7 16 -10 8 -3 12 -2 9 4 -6 10 -25 14 -25 6z"/>
<path d="M7160 1798 c0 -53 -4 -107 -9 -120 -32 -82 -46 -108 -58 -108 -8 0
-12 -4 -8 -9 9 -16 -50 -75 -102 -103 -138 -75 -309 -107 -630 -115 l-232 -6
-3 -112 c-4 -146 -5 -142 38 -137 24 3 39 0 45 -9 6 -10 9 -11 9 -1 0 10 421
12 2091 12 1150 0 2094 2 2098 5 5 2 8 57 7 122 l-1 118 -128 21 c-239 41
-382 108 -518 243 -47 47 -99 104 -116 125 l-30 40 -38 -52 c-20 -29 -42 -49
-47 -45 -7 3 -8 1 -4 -5 4 -7 2 -12 -3 -12 -6 0 -10 -4 -9 -8 5 -14 -104 -121
-167 -166 -209 -148 -465 -239 -769 -271 -173 -19 -236 -19 -379 0 -172 22
-310 74 -477 178 -80 50 -210 148 -270 204 -25 23 -57 51 -72 63 -29 22 -158
165 -195 215 l-22 30 -1 -97z"/>
<path d="M7546 1778 c3 -5 10 -6 15 -3 13 9 11 12 -6 12 -8 0 -12 -4 -9 -9z"/>
<path d="M6096 1293 c-6 -14 -5 -15 5 -6 7 7 10 15 7 18 -3 3 -9 -2 -12 -12z"/>
<path d="M993 1170 c0 -25 2 -35 4 -22 2 12 2 32 0 45 -2 12 -4 2 -4 -23z"/>
<path d="M980 1089 c0 -5 5 -7 10 -4 6 3 10 8 10 11 0 2 -4 4 -10 4 -5 0 -10
-5 -10 -11z"/>
<path d="M10350 1069 c0 -5 5 -7 10 -4 6 3 10 8 10 11 0 2 -4 4 -10 4 -5 0
-10 -5 -10 -11z"/>
</g>
</svg>
